<svg xmlns="http://www.w3.org/2000/svg" viewBox="0 0 200.52 96.66"><defs><style>.cls-1{fill:#dd7e6a;}.cls-2{fill:#fff;}.cls-3{fill:#faf0ed;}.cls-4{fill:#dc806c;}.cls-5{fill:#dc816d;}.cls-6{fill:#dc826e;}.cls-7{fill:#dc8370;}</style></defs><g id="Layer_2" data-name="Layer 2"><g id="Layer_1-2" data-name="Layer 1"><path class="cls-1" d="M0,96V0H200V96ZM157.24,54.52l-.49-.54c.09-4.9.15-9.8.29-14.69,0-1.55.33-3.08.45-4.62.09-1.05-.11-1.93-1.86-1.72-.75,1.69-1.56,3.54-2.37,5.38-5.25-2.59-8.63-1.38-11,4a22.41,22.41,0,0,0-2.44,9.94,3.64,3.64,0,0,1-.16,1.27c-2.17,6.53-4.34,13-6.59,19.55a11.86,11.86,0,0,1-1.55,2.45l-.61-.13a21.5,21.5,0,0,1-.73-3.13,49.17,49.17,0,0,1-.09-5.15c.09-4.82.35-9.63.31-14.44a21.22,21.22,0,0,0-1-6.33c-1.07-3.28-3.67-3.84-5.79-1.15a65.7,65.7,0,0,0-4.82,7.89,27.43,27.43,0,0,0-1.28,3,2.69,2.69,0,0,1-.58-1.72c.29-6.1.61-12.2.92-18.29.09-1.72.23-3.44.27-5.15,0-1-.27-1.9-2-2a28.24,28.24,0,0,0-2.8,4.14c-2.63,5.7-5,11.52-7.67,17.21-1.7,3.66-3.68,7.19-5.65,10.71a12.19,12.19,0,0,1-2.14,2.24L97.09,63a21.05,21.05,0,0,1-.7-4.72,104.73,104.73,0,0,1,1.43-12.52c.87-4.46,2.29-8.8,3.52-13.39l-1.57-1.1c-1.92,4-3,8-4.61,12-.44-.33-.71-.52-1-.73-2.57-2-5.08-2.13-7.4.15a12.24,12.24,0,0,0-2.9,4.46c-.92,2.67-1.33,5.51-2,8.26a22.19,22.19,0,0,1-1.36,4.37c-3.36,6.69-6.81,13.34-9.28,20.43a22.75,22.75,0,0,1-1.7,3.47,16.26,16.26,0,0,1-1.7,2c-.36-2.18-.75-3.75-.85-5.33a40.44,40.44,0,0,1,.1-5.16c.33-5.15.81-10.29,1-15.44a32.86,32.86,0,0,0-.45-8.18c-.63-2.94-3.2-3.61-5.58-1.75a9.84,9.84,0,0,0-2.44,2.63c-1.66,2.81-3.17,5.7-4.7,8.59-.47.88-.8,1.84-1.2,2.76l-.64-.07L52.2,49.9a30,30,0,0,0,3-2.55c3.44-3.73,6.89-7.46,10.18-11.33a36.8,36.8,0,0,0,6.41-10.85,10.52,10.52,0,0,0,.2-8,7,7,0,0,0-10.91-3,14.26,14.26,0,0,0-3.89,4.42,53.36,53.36,0,0,0-3.76,9.28,93.44,93.44,0,0,0-3.22,20.81c-5.75,6.69-11,13.17-16.67,19.29-3.71,4-6.93,4-9.8-1.27-4-7.27-2.88-14.6.27-21.84a5,5,0,0,1,.73-1.06,5.59,5.59,0,0,1,7.38-1.63c3,1.57,5,3.88,5.27,7.43a4.66,4.66,0,0,0,.54,1.33c1.53-.09,1.82-.92,1.73-2.1-.3-4-4.69-8.76-8.79-9.49s-7.71,1.54-9.69,6.07c-.2.48-.38,1-.54,1.45a31.83,31.83,0,0,0-1.37,13.76A16.72,16.72,0,0,0,24,70.71c2.54,2.57,5.18,3,8.18,1.09a21.81,21.81,0,0,0,4.4-3.92c4-4.48,7.91-9.07,11.89-13.6A12.77,12.77,0,0,1,50,53c.29,3.53.44,6.71.82,9.86s.51,6.42,1.69,9.44c2.19-.07,2-1.48,2.16-2.59.88-6.11,3.64-11.42,7-16.44A4.37,4.37,0,0,1,65.15,51a15.63,15.63,0,0,1,.77,3.4c0,2.92-.2,5.84-.34,8.76-.26,5.84-.6,11.68-.76,17.52a13,13,0,0,0,.75,4.54c1,2.82,3.25,3.21,5,.79a32,32,0,0,0,3-5.67c2.55-5.54,5-11.12,7.55-16.68a22.23,22.23,0,0,1,1.27-2.13c.53.79.88,1.35,1.27,1.87,1.46,2,3.31,2.18,5,.39a15.15,15.15,0,0,0,2.43-3.61c.92-1.84,1.64-3.78,2.45-5.67l.43.36a36,36,0,0,0,.08,3.6A21.84,21.84,0,0,0,95,63.29c.89,2.49,2.91,3,4.86,1.19a12.64,12.64,0,0,0,2.59-3.19c1.83-3.3,3.61-6.65,5.21-10.08,2-4.36,3.87-8.81,5.81-13.22.39-.89.69-1.9,2.23-2.05-.5,4-1.23,7.9-1.4,11.81-.25,5.4-.15,10.83,0,16.24A5.41,5.41,0,0,0,116,68.24c1.33-1,1.32-1,1.58-2.72a42.1,42.1,0,0,1,6.14-17.11c.67-1,1.3-2.22,2.78-2.51a9.19,9.19,0,0,1,1.53,5.7c0,3.78-.09,7.57-.12,11.35,0,3.26-.08,6.53,0,9.8a8.78,8.78,0,0,0,.86,3.45c1,2,2.88,2.29,4.4.63a10.3,10.3,0,0,0,2-3.26c1.46-3.95,2.77-7.95,4.14-11.94l1.33-3.85c3.25,1.59,4.64,1.34,6.68-1.16A12.74,12.74,0,0,0,149,54.26c1.31-2.61,2.55-5.26,3.82-7.89.27-.55.56-1.1,1.07-2.09,1.28,4.7.46,8.85.19,12.88-.72.77-1.29,1.42-1.9,2a23.6,23.6,0,0,0-6.76,15.24,10.64,10.64,0,0,0,.09,2.82A3.16,3.16,0,0,0,147.92,80a3.06,3.06,0,0,0,3.43-1.27,14.23,14.23,0,0,0,2-3.89c.84-3,1.53-6,2.09-9,.47-2.52.68-5.09,1-7.93l9-5.72a24.48,24.48,0,0,0,3.07,7.74c2.1,3,4.33,3.39,7.23,1.15a31.06,31.06,0,0,0,4.58-4.52c3.19-3.82,6.74-7.12,11.36-9.17a24.74,24.74,0,0,0,3.2-2.1l-1.45-1.59a33,33,0,0,1-2.85,1.73,32.86,32.86,0,0,0-11.93,9.69,24.59,24.59,0,0,1-3,3.19,28.8,28.8,0,0,1-3.17,2.14c-3.69-2.36-4.14-5.93-4.7-9.52a23.81,23.81,0,0,0,1.9-1.52c2-2,4.15-3.89,6-6a7.79,7.79,0,0,0,1.94-6.47,5,5,0,0,0-3.3-4.29c-1.91-.69-3.31.46-4.53,1.76a14.31,14.31,0,0,0-3.36,6.88c-.61,2.75-1,5.56-1.47,8.59Z"/><path class="cls-2" d="M0,96H200V0c.17.09.49.16.49.26,0,.69,0,1.37,0,2.06v94.2q-99.11,0-198.19,0C1.57,96.49.57,97.09,0,96Z"/><path class="cls-3" d="M93.58,54.55c-.81,1.89-1.53,3.83-2.45,5.67a15.15,15.15,0,0,1-2.43,3.61c-1.71,1.79-3.56,1.56-5-.39-.39-.52-.74-1.08-1.27-1.87a22.23,22.23,0,0,0-1.27,2.13c-2.53,5.56-5,11.14-7.55,16.68a32,32,0,0,1-3,5.67c-1.76,2.42-4,2-5-.79a13,13,0,0,1-.75-4.54c.16-5.84.5-11.68.76-17.52.14-2.92.34-5.84.34-8.76a15.63,15.63,0,0,0-.77-3.4,4.37,4.37,0,0,0-3.4,2.25c-3.41,5-6.17,10.33-7,16.44-.16,1.11,0,2.52-2.16,2.59-1.18-3-1.31-6.27-1.69-9.44S50.32,56.55,50,53a12.77,12.77,0,0,0-1.61,1.26c-4,4.53-7.87,9.12-11.89,13.6a21.81,21.81,0,0,1-4.4,3.92c-3,1.9-5.64,1.48-8.18-1.09a16.72,16.72,0,0,1-4.68-10.13,31.83,31.83,0,0,1,1.37-13.76c.16-.49.34-1,.54-1.45,2-4.53,5.62-6.81,9.69-6.07s8.49,5.48,8.79,9.49c.09,1.18-.2,2-1.73,2.1a4.66,4.66,0,0,1-.54-1.33c-.25-3.55-2.3-5.86-5.27-7.43a5.59,5.59,0,0,0-7.38,1.63A5,5,0,0,0,24,44.82c-3.15,7.24-4.26,14.57-.27,21.84,2.87,5.23,6.09,5.28,9.8,1.27,5.66-6.12,10.92-12.6,16.67-19.29a93.44,93.44,0,0,1,3.22-20.81,53.36,53.36,0,0,1,3.76-9.28,14.26,14.26,0,0,1,3.89-4.42,7,7,0,0,1,10.91,3,10.52,10.52,0,0,1-.2,8A36.8,36.8,0,0,1,65.38,36c-3.29,3.87-6.74,7.6-10.18,11.33a30,30,0,0,1-3,2.55l.89,13.81.64.07c.4-.92.73-1.88,1.2-2.76,1.53-2.89,3-5.78,4.7-8.59a9.84,9.84,0,0,1,2.44-2.63c2.38-1.86,4.95-1.19,5.58,1.75a32.86,32.86,0,0,1,.45,8.18c-.21,5.15-.69,10.29-1,15.44a40.44,40.44,0,0,0-.1,5.16c.1,1.58.49,3.15.85,5.33a16.26,16.26,0,0,0,1.7-2,22.75,22.75,0,0,0,1.7-3.47c2.47-7.09,5.92-13.74,9.28-20.43a22.19,22.19,0,0,0,1.36-4.37c.69-2.75,1.1-5.59,2-8.26a12.24,12.24,0,0,1,2.9-4.46c2.32-2.28,4.83-2.19,7.4-.15.26.21.53.4,1,.73,1.62-4,2.69-8,4.61-12l1.57,1.1c-1.23,4.59-2.65,8.93-3.52,13.39a104.73,104.73,0,0,0-1.43,12.52,21.05,21.05,0,0,0,.7,4.72l.69.22A12.19,12.19,0,0,0,99.92,61c2-3.52,4-7.05,5.65-10.71,2.66-5.69,5-11.51,7.67-17.21a28.24,28.24,0,0,1,2.8-4.14c1.76.06,2.06.95,2,2,0,1.71-.18,3.43-.27,5.15-.31,6.09-.63,12.19-.92,18.29a2.69,2.69,0,0,0,.58,1.72,27.43,27.43,0,0,1,1.28-3,65.7,65.7,0,0,1,4.82-7.89c2.12-2.69,4.72-2.13,5.79,1.15a21.22,21.22,0,0,1,1,6.33c0,4.81-.22,9.62-.31,14.44a49.17,49.17,0,0,0,.09,5.15,21.5,21.5,0,0,0,.73,3.13l.61.13A11.86,11.86,0,0,0,133,73.05c2.25-6.5,4.42-13,6.59-19.55a3.64,3.64,0,0,0,.16-1.27,22.41,22.41,0,0,1,2.44-9.94c2.4-5.34,5.78-6.55,11-4,.81-1.84,1.62-3.69,2.37-5.38,1.75-.21,2,.67,1.86,1.72-.12,1.54-.41,3.07-.45,4.62-.14,4.89-.2,9.79-.29,14.69l-.07.69.56-.15,7.74-4.7c.5-3,.86-5.84,1.47-8.59a14.31,14.31,0,0,1,3.36-6.88c1.22-1.3,2.62-2.45,4.53-1.76a5,5,0,0,1,3.3,4.29,7.79,7.79,0,0,1-1.94,6.47c-1.88,2.12-4,4-6,6a23.81,23.81,0,0,1-1.9,1.52c.56,3.59,1,7.16,4.7,9.52a28.8,28.8,0,0,0,3.17-2.14,24.59,24.59,0,0,0,3-3.19,32.86,32.86,0,0,1,11.93-9.69,33,33,0,0,0,2.85-1.73l1.45,1.59a24.74,24.74,0,0,1-3.2,2.1c-4.62,2-8.17,5.35-11.36,9.17A31.06,31.06,0,0,1,175.74,61c-2.9,2.24-5.13,1.89-7.23-1.15a24.48,24.48,0,0,1-3.07-7.74l-9,5.72c-.36,2.84-.57,5.41-1,7.93-.56,3-1.25,6.06-2.09,9a14.23,14.23,0,0,1-2,3.89A3.06,3.06,0,0,1,147.92,80a3.16,3.16,0,0,1-2.42-2.74,10.64,10.64,0,0,1-.09-2.82,23.6,23.6,0,0,1,6.76-15.24c.61-.6,1.18-1.25,1.9-2,.27-4,1.09-8.18-.19-12.88-.51,1-.8,1.54-1.07,2.09-1.27,2.63-2.51,5.28-3.82,7.89a12.74,12.74,0,0,1-1.57,2.36c-2,2.5-3.43,2.75-6.68,1.16l-1.33,3.85c-1.37,4-2.68,8-4.14,11.94a10.3,10.3,0,0,1-2,3.26c-1.52,1.66-3.4,1.39-4.4-.63a8.78,8.78,0,0,1-.86-3.45c-.12-3.27-.06-6.54,0-9.8,0-3.78.14-7.57.12-11.35a9.19,9.19,0,0,0-1.53-5.7c-1.48.29-2.11,1.48-2.78,2.51a42.1,42.1,0,0,0-6.14,17.11c-.26,1.74-.25,1.74-1.58,2.72A5.41,5.41,0,0,1,114.25,64c-.1-5.41-.2-10.84,0-16.24.17-3.91.9-7.79,1.4-11.81-1.54.15-1.84,1.16-2.23,2.05-1.94,4.41-3.78,8.86-5.81,13.22-1.6,3.43-3.38,6.78-5.21,10.08a12.64,12.64,0,0,1-2.59,3.19c-2,1.77-4,1.3-4.86-1.19a21.84,21.84,0,0,1-.91-4.78,36,36,0,0,1-.08-3.6l.1-1-.22,0Zm74.29-7.07c2.63-.94,4.17-3.14,5.81-5.16a9.52,9.52,0,0,0,1.69-3.4c.54-2-.23-3.29-2.46-4.41-3.94,3.41-5,8-5,13l-.06.15Zm-115.23-1a9.61,9.61,0,0,0,1.21-.88c3.88-4.47,7.95-8.8,11.54-13.49,2-2.54,3.17-5.66,4.54-8.6a6.76,6.76,0,0,0-.11-5.76,4.69,4.69,0,0,0-7.1-2.06A9.85,9.85,0,0,0,60,18.39,31.85,31.85,0,0,0,57,24a67,67,0,0,0-3.66,15.74C53.07,41.87,52.89,44,52.64,46.5Zm41.29.41C93.5,45,92.81,43.63,91,43.36s-2.9.88-3.84,2.15A7.15,7.15,0,0,0,86,47.79c-.72,2.73-1.45,5.48-2,8.26-.46,2.56.54,4.77,2.35,7.32C90.54,58.12,91.6,52.1,93.93,46.91Zm58.34-5.76c-2.52-2.82-5.06-2.74-7,.3a19.94,19.94,0,0,0-3.19,9.18c-.17,2-.34,4.31,1.42,6C146.4,55.37,150,49,152.27,41.15Zm1.37,19.68a21.84,21.84,0,0,0-6,14.91,7.37,7.37,0,0,0,.73,2.29C151.22,76.05,153.46,68.64,153.64,60.83Z"/><path class="cls-4" d="M52.64,46.5c.25-2.54.43-4.63.68-6.72A67,67,0,0,1,57,24a31.85,31.85,0,0,1,3-5.65,9.85,9.85,0,0,1,2.74-2.68,4.69,4.69,0,0,1,7.1,2.06,6.76,6.76,0,0,1,.11,5.76c-1.37,2.94-2.59,6.06-4.54,8.6-3.59,4.69-7.66,9-11.54,13.49A9.61,9.61,0,0,1,52.64,46.5Z"/><path class="cls-5" d="M93.93,46.91c-2.33,5.19-3.39,11.21-7.52,16.46-1.81-2.55-2.81-4.76-2.35-7.32.5-2.78,1.23-5.53,2-8.26a7.15,7.15,0,0,1,1.17-2.28c.94-1.27,2.07-2.43,3.84-2.15S93.5,45,93.93,46.91Z"/><path class="cls-5" d="M152.27,41.15C150,49,146.4,55.37,143.51,56.62c-1.76-1.68-1.59-3.94-1.42-6a19.94,19.94,0,0,1,3.19-9.18C147.21,38.41,149.75,38.33,152.27,41.15Z"/><path class="cls-6" d="M167.88,47.49c.07-5,1.09-9.57,5-13,2.23,1.12,3,2.43,2.46,4.41a9.52,9.52,0,0,1-1.69,3.4c-1.64,2-3.18,4.22-5.81,5.16Z"/><path class="cls-7" d="M153.64,60.83c-.18,7.81-2.42,15.22-5.29,17.2a7.37,7.37,0,0,1-.73-2.29A21.84,21.84,0,0,1,153.64,60.83Z"/><path class="cls-1" d="M93.58,54.55l.31-.66.22,0-.1,1Z"/><path class="cls-6" d="M167.87,47.48l-.05.16.06-.15Z"/><path class="cls-1" d="M157.24,54.52l-.56.15.07-.69Z"/></g></g></svg>