<svg xmlns="http://www.w3.org/2000/svg" viewBox="0 0 198.1 77.69"><defs><style>.cls-1{fill:#dd7f6b;}.cls-2{fill:#fbf2ee;}.cls-3{fill:#fff;}</style></defs><g id="Layer_2" data-name="Layer 2"><g id="Layer_1-2" data-name="Layer 1"><path class="cls-1" d="M198.07,1.26V43.52A3.67,3.67,0,0,0,195,44.94c-4.74,4.73-8.52,10.23-12.81,15.32-1,1.16-1.87,2.79-3.7,2.43s-2.24-2-2.8-3.49a11.88,11.88,0,0,1-.52-2.38c-1.31-7.86.63-15.4,2.3-23A54.6,54.6,0,0,1,179.72,26c.67-1.74,1.62-2.14,3.08-1.81,2.4.54,4.77,0,7.16,0,1.25,0,2.41-.54,2.3-1.8s-1.47-.75-2.3-.73c-2.12.05-4.24.33-6.35.29-1.68,0-2.93-.42-2.18-2.79,1-3,1.37-6.2,2.59-9.18.35-.85.42-1.92-.84-2.21-1-.23-1.51.51-1.69,1.39-.74,3.71-3.31,6.71-4.05,10.41-.37,1.84-1.5,2.35-3.34,2.48-2.7.2-5.3-.42-7.95-.43-.88,0-1.78.2-1.8,1.25s.86,1.38,1.75,1.27c2.5-.29,4.9.85,7.41.43,1.56-.27,1.84.3,1.42,1.85-.64,2.37-2.5,4-3.39,6.21a59.09,59.09,0,0,1-5.32,10.53,43,43,0,0,1-8.51,9.59c-2.57,2.11-5.41,1.26-7.06-1.63-4.05-7.08-.81-14.28,2.65-19.77,1.31-2.09,3.65-1.77,5.38.16s1.82,4.29,1.71,6.69c0,.94.17,1.7,1.28,1.67s1.39-.76,1.32-1.7c-.11-1.55-.2-3.1-.42-4.63-.3-2.12-3.92-5.75-6.25-6.06-2.72-.38-4.51,1.19-5.91,3.29a18.21,18.21,0,0,0-2.28,5.28,7.56,7.56,0,0,1-2,3.56c-4.88,4.58-9.71,9.2-14.14,14.21-1.67,1.88-3.75,3-6.35,2.37-1.69-.44-3.63-4.34-3.51-6.77.11-2.16-.64-5.1,3.44-4.07a2.48,2.48,0,0,0,1.8-.57c4.23-3.37,8.15-6.86,7.75-13-.15-2.33-.73-4.26-2.93-5.07A5.4,5.4,0,0,0,126,28.28c-2.91,3.27-5.45,7-5.71,11.3-.38,6.36-3,12-4.8,17.87-1.1,3.6-1.53,7.6-4.49,10.46-1,1-1.49,1.16-1.9-.55a39.36,39.36,0,0,1-.66-13.56,23.34,23.34,0,0,0-1.07-10.31c-1.07-3.06-2.31-3.29-4.83-1.27A12.64,12.64,0,0,0,98.88,47c-1.12,2.48-2.22,5-3.57,8,0-1.4-.07-2.28,0-3.14.74-7.33.55-14.73,2-22,.2-1,.52-2.42-.89-2.84s-1.75.94-2.14,1.95c-3,7.63-4.78,15.67-8.47,23C84.13,55.29,83.3,59,81.26,62.22c-.45.69-1,1.5-1.9,1.41s-1.18-1.06-1.43-1.83a18.57,18.57,0,0,1-.9-8.4,49.75,49.75,0,0,0-.14-14.16c-.18-1.32-.54-2.31-1.74-2.83a3.28,3.28,0,0,0-3.58.74,19.3,19.3,0,0,0-3.68,4.43c-.38.57-.9,1-1.6.68s-.45-1-.33-1.47c1.14-5.08.42-10.37,1.86-15.41.28-1,.57-2.4-.9-2.79s-1.7,1.07-2.12,2C62,30.93,58.29,36.84,55.05,43c-.44.84-.74,2.19-1.92,2.07-1-.09-1-1.41-1.37-2.18-3.42-6.42-10-7.06-13.57-.83-2,3.49-4.84,6.06-7.24,9.08-2.73,3.42-5.76,6.61-8.75,9.82-3.65,3.93-7.32,3.45-9.86-1.22a16.62,16.62,0,0,1-2.46-8.07c.12-6.53,0-13.14,3.27-19.18.94-1.75,1.82-3.73,4-3.72A6.93,6.93,0,0,1,23,31.68c1.29,1.82,1.91,4,3.13,5.78.42.63,1,1.2,1.83.69s.79-1.14.41-1.9a54.45,54.45,0,0,0-3.11-6.09c-2.09-3.08-5.46-4.08-8.93-3.88-2.82.16-4.44,2.42-5.45,4.91-.64,1.61-1.12,3.29-1.62,4.95C6.58,45.12,5.9,54,11,62.47c1.75,2.93,4.28,3.94,7.64,3.37,3.65-.62,5.71-3.14,7.67-5.79,2.46-3.31,5.8-5.73,8.44-9.21A5.89,5.89,0,0,1,35,54.61c-.42,4.08.42,7.82,3.61,10.75A4.83,4.83,0,0,0,45,66c2.75-1.71,5.16-3.7,6.14-7.05.82-2.81,1.87-5.55,1.92-8.52a2.63,2.63,0,0,1,.78-2.26c4.05-3,5.46-7.69,7.78-11.79a9.84,9.84,0,0,1,2.55-3.56c0,.69,0,1.05,0,1.41-.3,7.47-1.81,14.86-1.44,22.37,0,.7-.67,1.81.66,2,1.08.15,1.3-.82,1.49-1.63.54-2.3,1-4.64,1.59-6.91,1.17-4.09,2.94-7.87,6.41-10.6.61-.48,1.34-1.35,1.58.38A50.17,50.17,0,0,1,74.71,53a22,22,0,0,0,.88,10c1.32,4,3.33,4.34,6.55,1.72a9.9,9.9,0,0,0,3-4.17c1.43-3.57,2.79-7.16,4.25-10.71,1.19-2.88,2.49-5.72,4.05-9.31a45.23,45.23,0,0,1-.26,5.93c-.41,5.44-.53,10.91-.67,16.36,0,1,.23,2.19,1.51,2.29,1.52.11,1.6-1.21,1.86-2.27a78.73,78.73,0,0,1,5.74-15.34,7.65,7.65,0,0,1,3-3.8,24.5,24.5,0,0,1,1.17,11.19,38.06,38.06,0,0,0,.69,12.77c.43,1.8.87,3.46,3,3.72s3.24-1.15,4.14-2.69a33.5,33.5,0,0,0,3.93-8.68c.59-2.33,1.36-4.62,2.07-7,1,.51,1.09,1.33,1.44,1.94,2.11,3.71,4.12,4.71,8.17,3.84a9.38,9.38,0,0,0,4.52-3c3.47-3.53,6.89-7.1,10.37-10.62.52-.53.89-1.44,2-1.22.17,1.27.31,2.54.51,3.8a14.49,14.49,0,0,0,2.61,6.25c1.93,2.64,7.75,3.67,11.07.11,4.82-5.16,9.45-10.45,12.22-17.07.37-.87.5-2,1.55-2.47.57.92.2,1.82,0,2.67-1.23,6.45-2.6,12.84-1.44,19.52a15.83,15.83,0,0,0,1.66,5.68c2.17,3.65,5.43,4.11,8.42,1.1a35,35,0,0,0,5.32-6.26,50.22,50.22,0,0,1,10-11.5V77q-96.9,0-193.8.06c-2.51,0-3.2-.62-3.19-3.14.11-23.23,0-46.45.07-69.68C1.16.23.64.7,4.64.72,69.12,1,133.6.05,198.07,1.26Z" transform="translate(0 0)"/><path class="cls-2" d="M198.07,45.71a50.22,50.22,0,0,0-10,11.5,35,35,0,0,1-5.32,6.26c-3,3-6.25,2.55-8.42-1.1a15.83,15.83,0,0,1-1.66-5.68c-1.16-6.68.21-13.07,1.44-19.52.17-.85.54-1.75,0-2.67-1.05.51-1.18,1.6-1.55,2.47-2.77,6.62-7.4,11.91-12.22,17.07-3.32,3.56-9.14,2.53-11.07-.11a14.49,14.49,0,0,1-2.61-6.25c-.2-1.26-.34-2.53-.51-3.8-1.12-.22-1.49.69-2,1.22-3.48,3.52-6.9,7.09-10.37,10.62a9.38,9.38,0,0,1-4.52,3c-4,.87-6.06-.13-8.17-3.84-.35-.61-.41-1.43-1.44-1.94-.71,2.37-1.48,4.66-2.07,7a33.5,33.5,0,0,1-3.93,8.68c-.9,1.54-2.11,2.94-4.14,2.69s-2.55-1.92-3-3.72a38.06,38.06,0,0,1-.69-12.77,24.5,24.5,0,0,0-1.17-11.19,7.65,7.65,0,0,0-3,3.8,78.73,78.73,0,0,0-5.74,15.34c-.26,1.06-.34,2.38-1.86,2.27-1.28-.1-1.54-1.31-1.51-2.29.14-5.45.26-10.92.67-16.36a45.23,45.23,0,0,0,.26-5.93c-1.56,3.59-2.86,6.43-4.05,9.31-1.46,3.55-2.82,7.14-4.25,10.71a9.9,9.9,0,0,1-3,4.17c-3.22,2.62-5.23,2.24-6.55-1.72a22,22,0,0,1-.88-10,50.17,50.17,0,0,0-.29-13.12c-.24-1.73-1-.86-1.58-.38-3.47,2.73-5.24,6.51-6.41,10.6-.64,2.27-1.05,4.61-1.59,6.91-.19.81-.41,1.78-1.49,1.63-1.33-.18-.62-1.29-.66-2-.37-7.51,1.14-14.9,1.44-22.37,0-.36,0-.72,0-1.41a9.84,9.84,0,0,0-2.55,3.56c-2.32,4.1-3.73,8.8-7.78,11.79A2.63,2.63,0,0,0,53,50.44c-.05,3-1.1,5.71-1.92,8.52-1,3.35-3.39,5.34-6.14,7.05a4.83,4.83,0,0,1-6.32-.65c-3.19-2.93-4-6.67-3.61-10.75a5.89,5.89,0,0,0-.33-3.77c-2.64,3.48-6,5.9-8.44,9.21-2,2.65-4,5.17-7.67,5.79-3.36.57-5.89-.44-7.64-3.37C5.9,54,6.58,45.12,9.27,36.14c.5-1.66,1-3.34,1.62-4.95,1-2.49,2.63-4.75,5.45-4.91,3.47-.2,6.84.8,8.93,3.88a54.45,54.45,0,0,1,3.11,6.09c.38.76.37,1.45-.41,1.9s-1.41-.06-1.83-.69c-1.22-1.83-1.84-4-3.13-5.78a6.93,6.93,0,0,0-5.86-2.95c-2.18,0-3.06,2-4,3.72C9.89,38.49,10,45.1,9.88,51.63a16.62,16.62,0,0,0,2.46,8.07c2.54,4.67,6.21,5.15,9.86,1.22,3-3.21,6-6.4,8.75-9.82,2.4-3,5.25-5.59,7.24-9.08,3.55-6.23,10.15-5.59,13.57.83.41.77.42,2.09,1.37,2.18,1.18.12,1.48-1.23,1.92-2.07,3.24-6.12,6.9-12,9.75-18.36.42-.94.6-2.42,2.12-2s1.18,1.8.9,2.79c-1.44,5-.72,10.33-1.86,15.41-.12.49-.26,1.17.33,1.47s1.22-.11,1.6-.68a19.3,19.3,0,0,1,3.68-4.43,3.28,3.28,0,0,1,3.58-.74c1.2.52,1.56,1.51,1.74,2.83A49.75,49.75,0,0,1,77,53.4a18.57,18.57,0,0,0,.9,8.4c.25.77.48,1.74,1.43,1.83s1.45-.72,1.9-1.41c2-3.2,2.87-6.93,4.55-10.28,3.69-7.37,5.51-15.41,8.47-23,.39-1,.64-2.39,2.14-1.95s1.09,1.84.89,2.84c-1.44,7.26-1.25,14.66-2,22-.08.86,0,1.74,0,3.14,1.35-3,2.45-5.47,3.57-8a12.64,12.64,0,0,1,3.62-4.75c2.52-2,3.76-1.79,4.83,1.27A23.34,23.34,0,0,1,108.4,53.8a39.36,39.36,0,0,0,.66,13.56c.41,1.71.91,1.5,1.9.55,3-2.86,3.39-6.86,4.49-10.46,1.79-5.88,4.42-11.51,4.8-17.87.26-4.29,2.8-8,5.71-11.3a5.4,5.4,0,0,1,6.25-1.61c2.2.81,2.78,2.74,2.93,5.07.4,6.18-3.52,9.67-7.75,13a2.48,2.48,0,0,1-1.8.57c-4.08-1-3.33,1.91-3.44,4.07-.12,2.43,1.82,6.33,3.51,6.77,2.6.68,4.68-.49,6.35-2.37,4.43-5,9.26-9.63,14.14-14.21a7.56,7.56,0,0,0,2-3.56,18.21,18.21,0,0,1,2.28-5.28c1.4-2.1,3.19-3.67,5.91-3.29,2.33.31,6,3.94,6.25,6.06.22,1.53.31,3.08.42,4.63.07.94-.26,1.68-1.32,1.7s-1.33-.73-1.28-1.67c.11-2.4,0-4.74-1.71-6.69s-4.07-2.25-5.38-.16c-3.46,5.49-6.7,12.69-2.65,19.77,1.65,2.89,4.49,3.74,7.06,1.63a43,43,0,0,0,8.51-9.59,59.09,59.09,0,0,0,5.32-10.53c.89-2.21,2.75-3.84,3.39-6.21.42-1.55.14-2.12-1.42-1.85-2.51.42-4.91-.72-7.41-.43-.89.11-1.77-.2-1.75-1.27s.92-1.26,1.8-1.25c2.65,0,5.25.63,7.95.43,1.84-.13,3-.64,3.34-2.48.74-3.7,3.31-6.7,4.05-10.41.18-.88.67-1.62,1.69-1.39,1.26.29,1.19,1.36.84,2.21-1.22,3-1.63,6.16-2.59,9.18-.75,2.37.5,2.76,2.18,2.79,2.11,0,4.23-.24,6.35-.29.83,0,2.19-.51,2.3.73s-1,1.81-2.3,1.8c-2.39,0-4.76.53-7.16,0-1.46-.33-2.41.07-3.08,1.81a54.6,54.6,0,0,0-2.24,7.87c-1.67,7.56-3.61,15.1-2.3,23a11.88,11.88,0,0,0,.52,2.38c.56,1.44,1.05,3.15,2.8,3.49s2.73-1.27,3.7-2.43c4.29-5.09,8.07-10.59,12.81-15.32a3.67,3.67,0,0,1,3.06-1.42ZM44.49,40.31c-2.73.27-3.93,2.26-4.75,4.6-1,2.91.6,6.81,3.13,7.66,1.51.51,7.26-2.8,7.76-4.48C51.41,45.52,47.35,40.27,44.49,40.31ZM50,52.5c-4.36,3-8.23,3.67-11.79-.21-1.5,3.07-.57,8.56,1.8,10.82a3.33,3.33,0,0,0,4.71.38C48.22,60.9,49.26,57.14,50,52.5Zm82.66-20c.23-1.55,0-2.86-1.54-3.5s-2.65.26-3.56,1.35c-2.42,2.9-4.5,6-4.81,9.88-.18,2.16,1.47,3.44,3.28,2.29A13.38,13.38,0,0,0,132.64,32.5Z" transform="translate(0 0)"/><path class="cls-3" d="M198.07,1.26C133.6.05,69.12,1,4.64.72.64.7,1.16.23,1.15,4.24c0,23.23,0,46.45-.07,69.68,0,2.52.68,3.14,3.19,3.14q96.9-.11,193.8-.06c-.61,1.15-1.67.51-2.48.51q-59.85.06-119.69,0c-24.61,0-49.21,0-73.81,0C.31,77.6,0,77.13,0,75.47Q.09,38.86,0,2.24C0,.58.31.11,2.09.11q97,.09,194,.09C196.81.2,198.34-.68,198.07,1.26Z" transform="translate(0 0)"/><path class="cls-1" d="M44.49,40.31c2.86,0,6.92,5.21,6.14,7.78-.5,1.68-6.25,5-7.76,4.48-2.53-.85-4.15-4.75-3.13-7.66C40.56,42.57,41.76,40.58,44.49,40.31Z" transform="translate(0 0)"/><path class="cls-1" d="M50,52.5c-.72,4.64-1.76,8.4-5.28,11A3.33,3.33,0,0,1,40,63.11c-2.37-2.26-3.3-7.75-1.8-10.82C41.75,56.17,45.62,55.51,50,52.5Z" transform="translate(0 0)"/><path class="cls-1" d="M132.64,32.5a13.38,13.38,0,0,1-6.63,10c-1.81,1.15-3.46-.13-3.28-2.29.31-3.91,2.39-7,4.81-9.88.91-1.09,2-2,3.56-1.35S132.87,31,132.64,32.5Z" transform="translate(0 0)"/></g></g></svg>