<svg xmlns="http://www.w3.org/2000/svg" viewBox="0 0 191.7 63.57"><defs><style>.cls-1{fill:#231f20;}</style></defs><g id="Layer_2" data-name="Layer 2"><g id="Layer_1-2" data-name="Layer 1"><path class="cls-1" d="M61.12,23.85h-5.9V8.14L45.68,23.85H41.41L31.87,8.14V23.85H26V1h8l9.6,16.16L53.15,1h8Z"/><path class="cls-1" d="M71.28,5.62v4.65H89.64v4.25H71.28v4.65H89.64v4.68H65.38V1H89.64V5.62Z"/><path class="cls-1" d="M121.22,12.4c0,7.78-5.22,11.45-11.15,11.45H93.41V1h16.66C116,1,121.22,4.61,121.22,12.4Zm-5.9,0c0-5.57-3-6.51-7.48-6.51H99.31v13h8.53C112.3,18.91,115.32,18,115.32,12.4Z"/><path class="cls-1" d="M130.89,23.85H125V1h5.9Z"/><path class="cls-1" d="M54.07,49.8V56H46.94V52a3.83,3.83,0,0,0-1.07-3A5.53,5.53,0,0,0,42.21,48H33v8h-7.1V33.48H44.13q9.84,0,9.84,5.84v.37q0,3.57-4.2,4.93a6.56,6.56,0,0,1,3.11,1.83A4.75,4.75,0,0,1,54.07,49.8Zm-7.5-9a2,2,0,0,0-.7-1.58,3.28,3.28,0,0,0-2.16-.6H33V43H43.71a3.27,3.27,0,0,0,2.16-.61,2,2,0,0,0,.7-1.6Z"/><path class="cls-1" d="M85.62,33v5.21H67v3.39H85.18v5.24H67v3.77H86V56H59.19V33Z"/><path class="cls-1" d="M125,56h-7.68l-2.15-4.14H98.86L96.72,56H89l12.19-22.64h11.63ZM101.5,46.72h11.08l-4.32-8.31h-2.45l-4.31,8.31Z"/><path class="cls-1" d="M145.22,33a41.91,41.91,0,0,1,6.33.43,19.2,19.2,0,0,1,4.72,1.25,15.91,15.91,0,0,1,3.24,1.82,7.24,7.24,0,0,1,2.05,2.26,10.36,10.36,0,0,1,1,2.49,9.91,9.91,0,0,1,.32,2.6v.93a11.28,11.28,0,0,1-.4,3.07,9.07,9.07,0,0,1-1.6,3,10.2,10.2,0,0,1-3.09,2.62,18.18,18.18,0,0,1-5.12,1.79,34.58,34.58,0,0,1-7.45.71H128.6V33Zm-8.76,17.42h8.15q10.08,0,10.08-5.92v-.18q0-5.89-10.08-5.89h-8.15Z"/><path class="cls-1" d="M191.7,40.09l-9.22,18.56a11.23,11.23,0,0,1-2.75,3.75A5.71,5.71,0,0,1,176,63.57H127V58.39h46.76c.57,0,.85-.18.85-.55a7.32,7.32,0,0,0-.82-1.84l-8.4-15.91h7.85l5.65,11.77,5.5-11.77Z"/><path class="cls-1" d="M4.16,52.35V16H0C6.63,12.86,13.27,6.12,14.71,0V52.28a5.34,5.34,0,0,0,2.63,4.59H1.52A5,5,0,0,0,4.16,52.35Z"/></g></g></svg>