<svg xmlns="http://www.w3.org/2000/svg" viewBox="0 0 201.2 98.05"><defs><style>.cls-1{fill:#dd7e6a;}.cls-2{fill:#fbf1ee;}.cls-3{fill:#dfb2a9;}</style></defs><g id="Layer_2" data-name="Layer 2"><g id="Layer_1-2" data-name="Layer 1"><path class="cls-1" d="M199.91,98H0V.57H199.91Zm-182-31.7-1,.21Q14.2,52.87,11.48,39.2a9.14,9.14,0,0,0-.29-1.38c-.31-.84-.79-1.58-1.86-1.26s-1.12,1.11-.83,2,.44,1.62.63,2.43c3.87,16.55,6,33.43,10,49.94.31,1.32,0,3.69,2.13,3.28s.91-2.5.74-3.84C20.36,77.7,19.61,65,22,52.29A31.51,31.51,0,0,1,25.9,41.51c.6-1,1.11-2.23,2.6-2.25,2.4,3.92,2.36,5.46-.23,9.07C26,51.56,23.79,54.86,23.61,59c-.07,1.73,0,3.54,1.94,4.27s2.91-.79,3.92-2c3-3.69,3.88-8.08,3.84-12.67a6.34,6.34,0,0,1,1.89-4.74,105.25,105.25,0,0,1,9.73-8.56A26.71,26.71,0,0,1,49.7,31.6c1.6,1.48,1.34,3,.8,4.58a75,75,0,0,0-3.87,15,24.19,24.19,0,0,0,.21,8.4c.35,1.53,1,2.87,2.74,3.23A3.7,3.7,0,0,0,53.46,61,39.57,39.57,0,0,0,56.1,56.7a93.16,93.16,0,0,1,9.79-14.77c.56-.67,1-1.82,2.18-1.41s.79,1.57.77,2.47a23.83,23.83,0,0,0,1.61,10.2c2.43,5.67,7.15,6.37,11.19,1.68a12.87,12.87,0,0,0,2-3.38A35.44,35.44,0,0,0,86.19,42c.47-3.58,1.56-4.61,5.51-5.1a10.18,10.18,0,0,1,.64,3.83c.77,8,1.5,16.07,3,24A13.63,13.63,0,0,0,96.27,68c.91,1.91,2.62,2,3.59.13a14.82,14.82,0,0,0,1.27-4c2.44-12.39,6.65-24.23,11.2-36a11.24,11.24,0,0,0,.55-1.3,1.19,1.19,0,0,0-.58-1.44,1.23,1.23,0,0,0-1.53.29,6.9,6.9,0,0,0-1.42,2.72c-4.07,10.81-8,21.65-10.34,33-.13.69,0,1.58-1.17,1.81A121.64,121.64,0,0,1,96,50.48c-.47-4.57-.83-9.16-1.49-13.7-.43-2.94-1.86-3.55-4.62-2.53-1.11.41-2,1.33-3.57,1.2a24.22,24.22,0,0,0-2.13-6.31C80.48,22.86,73.32,22,68.29,27.26a9.72,9.72,0,0,0-2.66,8.81,2.84,2.84,0,0,1-.52,2.82c-5,5.45-8.76,11.71-12.24,18.17-.64,1.19-1.15,2.58-2.9,3.15-1.43-3.14-1-6.3-.61-9.41.59-5,2.28-9.67,3.84-14.39.9-2.74.16-4.92-1.68-7a2.07,2.07,0,0,0-3.19-.32q-2.34,1.82-4.6,3.74c-3.61,3.06-7.43,5.89-10.85,9.71-.4-1.14-.6-1.75-.83-2.35-.63-1.67-1.11-3.54-3.29-3.78s-3.31,1.12-4.4,2.59a25.23,25.23,0,0,0-3.76,7.84A72.65,72.65,0,0,0,17.9,66.32Zm127.62,4a6.35,6.35,0,0,1-1-3.76,64,64,0,0,1,.69-16c2.67-16.52-.65-11,11.76-22.46a91.74,91.74,0,0,0,8.41-8.32c1.89-2.26,3.49-4.69,3.73-7.74.21-2.64,0-5.19-2.61-6.67s-4.92-.7-7.17.75A20.66,20.66,0,0,0,154,11.54c-3.14,4.31-5,9.22-6.57,14.26-.84,2.72-1.59,5.48-2.47,8.52l-1-1.09c-4.05-4.85-9.42-4-11.83,1.87-.6,1.47-.83,3.11-1.53,4.53-3.22,6.54-6.54,13-9.85,19.51-.15.3-.52.48-.9.81a11,11,0,0,1-2.44-6.81A80.44,80.44,0,0,1,118.36,36c.15-1,.64-2.26-.88-2.48-1.34-.19-1.59,1-1.74,2.07a98.65,98.65,0,0,0-1,16.56,19.11,19.11,0,0,0,1.78,7.62c.65,1.37,1.34,2.79,3.14,2.9s2.81-1.2,3.74-2.56c2.16-3.2,3.53-6.79,5.18-10.24A3.81,3.81,0,0,1,130,47.81c.37,1.12.61,2,.94,2.87.61,1.58,1.23,3.33,3.13,3.68s3.29-1.13,4.39-2.54a31.75,31.75,0,0,0,2.11-3.33c.6-1,1.16-2.05,2.06-3.65.6,3.82-.35,6.8-.59,9.82-.4,5.25-.71,10.49.38,15.7.28,1.32.83,2.57,2.32,2.91s2.52-.61,3.28-1.71A21.39,21.39,0,0,0,150,68.13c1.82-4,3.54-8.08,5.38-12.09a9,9,0,0,1,2.39-3.73c.25.38.43.6.56.84,3.32,6.13,6.61,6.68,11.67,1.92.27-.25.54-.52.81-.78,6.07-6.19,12.16-12.34,20.57-15.43.93-.34,1.75-1,1.17-2.13s-1.38-.61-2.2-.29a40.78,40.78,0,0,0-10.53,5.92A141.58,141.58,0,0,0,168.41,52.9c-4.08,4-6.48,3.34-8.11-2.08a2.41,2.41,0,0,1-.05-2.13c1.4-.51,3-1,4.55-1.68a9.45,9.45,0,0,0,6.3-8.85c.11-2.24-.2-4.48-2.48-5.55s-4.22.07-5.9,1.56c-3.24,2.89-4.76,6.66-5.36,10.88-.17,1.19-.06,2.43-.81,3.52-3.55,5.15-5.68,11-8.2,16.65A18.08,18.08,0,0,1,145.52,70.35ZM119.86,26.58c.78-.29,1.8-.58,1.85-1.84a1.24,1.24,0,0,0-1.3-1.45c-1.14.1-2.2.59-2.25,1.95C118.13,26.11,118.84,26.45,119.86,26.58Z" transform="translate(0 0)"/><path class="cls-2" d="M199.91,98V.57H0C.15.4-.26,0,.31,0c.75,0,1.51,0,2.26,0H201q0,48,0,96C201,96.73,201.9,98.28,199.91,98Z" transform="translate(0 0)"/><path class="cls-2" d="M17.9,66.32a72.65,72.65,0,0,1,2.7-19.46A25.23,25.23,0,0,1,24.36,39c1.09-1.47,2.36-2.8,4.4-2.59s2.66,2.11,3.29,3.78c.23.6.43,1.21.83,2.35,3.42-3.82,7.24-6.65,10.85-9.71q2.27-1.92,4.6-3.74a2.07,2.07,0,0,1,3.19.32c1.84,2.06,2.58,4.24,1.68,7C51.64,41.13,50,45.83,49.36,50.8c-.37,3.11-.82,6.27.61,9.41,1.75-.57,2.26-2,2.9-3.15,3.48-6.46,7.27-12.72,12.24-18.17a2.84,2.84,0,0,0,.52-2.82,9.72,9.72,0,0,1,2.66-8.81c5-5.25,12.19-4.4,15.87,1.88a24.22,24.22,0,0,1,2.13,6.31c1.52.13,2.46-.79,3.57-1.2,2.76-1,4.19-.41,4.62,2.53.66,4.54,1,9.13,1.49,13.7a121.64,121.64,0,0,0,1.87,12.75c1.15-.23,1-1.12,1.17-1.81,2.31-11.36,6.27-22.2,10.34-33a6.9,6.9,0,0,1,1.42-2.72,1.23,1.23,0,0,1,1.53-.29,1.19,1.19,0,0,1,.58,1.44,11.24,11.24,0,0,1-.55,1.3c-4.55,11.74-8.76,23.58-11.2,36a14.82,14.82,0,0,1-1.27,4c-1,1.87-2.68,1.78-3.59-.13a13.63,13.63,0,0,1-.89-3.24c-1.54-7.94-2.27-16-3-24a10.18,10.18,0,0,0-.64-3.83c-4,.49-5,1.52-5.51,5.1a35.44,35.44,0,0,1-2.54,9.49,12.87,12.87,0,0,1-2,3.38c-4,4.69-8.76,4-11.19-1.68A23.83,23.83,0,0,1,68.84,43c0-.9.38-2.05-.77-2.47s-1.62.74-2.18,1.41A93.16,93.16,0,0,0,56.1,56.7,39.57,39.57,0,0,1,53.46,61a3.7,3.7,0,0,1-3.88,1.75c-1.72-.36-2.39-1.7-2.74-3.23a24.19,24.19,0,0,1-.21-8.4,75,75,0,0,1,3.87-15c.54-1.6.8-3.1-.8-4.58a26.71,26.71,0,0,0-4.77,3.69,105.25,105.25,0,0,0-9.73,8.56,6.34,6.34,0,0,0-1.89,4.74c0,4.59-.81,9-3.84,12.67-1,1.23-2,2.72-3.92,2s-2-2.54-1.94-4.27c.18-4.15,2.35-7.45,4.66-10.68,2.59-3.61,2.63-5.15.23-9.07-1.49,0-2,1.24-2.6,2.25A31.51,31.51,0,0,0,22,52.29C19.61,65,20.36,77.7,22,90.41c.17,1.34,1.38,3.43-.74,3.84s-1.82-2-2.13-3.28C15.17,74.46,13,57.58,9.13,41c-.19-.81-.39-1.63-.63-2.43s-.21-1.72.83-2,1.55.42,1.86,1.26a9.14,9.14,0,0,1,.29,1.38q2.71,13.67,5.42,27.33a9.23,9.23,0,0,0,1,4.48A14.24,14.24,0,0,0,17.9,66.32ZM68.4,35.09c3.49-1.21,4.14-.78,3.57,2.61-.31,1.86.48,2.36,2,2.45a11.74,11.74,0,0,0,4.39-.8c5.78-1.9,6.5-4,3.2-9.27-1.87-3-5-4.3-7.91-3.35A7.72,7.72,0,0,0,68.4,35.09Zm3.18,7.42a19.1,19.1,0,0,0,1.47,9.93c1.59,3.46,4,3.87,6.4.85,2.9-3.69,3.7-8.16,4.29-13.07C79.55,41.69,75.93,43.44,71.58,42.51ZM30.19,50.66c-2.2,2.81-4.1,5.68-3.64,9.41A11.1,11.1,0,0,0,30.19,50.66Z" transform="translate(0 0)"/><path class="cls-2" d="M145.52,70.35a18.08,18.08,0,0,0,2.83-5.13c2.52-5.66,4.65-11.5,8.2-16.65.75-1.09.64-2.33.81-3.52.6-4.22,2.12-8,5.36-10.88,1.68-1.49,3.63-2.63,5.9-1.56s2.59,3.31,2.48,5.55A9.45,9.45,0,0,1,164.8,47c-1.56.64-3.15,1.17-4.55,1.68a2.41,2.41,0,0,0,.05,2.13c1.63,5.42,4,6.06,8.11,2.08a141.58,141.58,0,0,1,11.36-10.54,40.78,40.78,0,0,1,10.53-5.92c.82-.32,1.68-.73,2.2.29s-.24,1.79-1.17,2.13c-8.41,3.09-14.5,9.24-20.57,15.43-.27.26-.54.53-.81.78-5.06,4.76-8.35,4.21-11.67-1.92-.13-.24-.31-.46-.56-.84A9,9,0,0,0,155.33,56c-1.84,4-3.56,8.07-5.38,12.09A21.39,21.39,0,0,1,148,71.56c-.76,1.1-1.75,2.07-3.28,1.71s-2-1.59-2.32-2.91c-1.09-5.21-.78-10.45-.38-15.7.24-3,1.19-6,.59-9.82-.9,1.6-1.46,2.64-2.06,3.65a31.75,31.75,0,0,1-2.11,3.33c-1.1,1.41-2.35,2.91-4.39,2.54s-2.52-2.1-3.13-3.68c-.33-.86-.57-1.75-.94-2.87a3.81,3.81,0,0,0-1.46,2.08c-1.65,3.45-3,7-5.18,10.24-.93,1.36-1.87,2.66-3.74,2.56s-2.49-1.53-3.14-2.9a19.11,19.11,0,0,1-1.78-7.62,98.65,98.65,0,0,1,1-16.56c.15-1.09.4-2.26,1.74-2.07,1.52.22,1,1.47.88,2.48a80.44,80.44,0,0,0-.91,17.12A11,11,0,0,0,119.89,60c.38-.33.75-.51.9-.81,3.31-6.49,6.63-13,9.85-19.51.7-1.42.93-3.06,1.53-4.53,2.41-5.88,7.78-6.72,11.83-1.87l1,1.09c.88-3,1.63-5.8,2.47-8.52,1.56-5,3.43-10,6.57-14.26a20.66,20.66,0,0,1,5.32-5.39C161.57,4.7,164,4,166.49,5.4s2.82,4,2.61,6.67c-.24,3-1.84,5.48-3.73,7.74A91.74,91.74,0,0,1,157,28.13c-12.41,11.45-9.09,5.94-11.76,22.46a64,64,0,0,0-.69,16A6.35,6.35,0,0,0,145.52,70.35ZM148.46,31c.77-.11,1.23,0,1.45-.24,5.23-4.69,10.91-8.93,15-14.8a8.84,8.84,0,0,0,1.61-4.15c.14-1.52.18-3.11-1.26-4.08s-2.93-.35-4.23.46a19.41,19.41,0,0,0-6,6.6C151.92,19.71,150.46,25.24,148.46,31ZM134.7,51.7A7.37,7.37,0,0,0,136,50.64c2.78-3.68,4.54-8,6.75-12,.9-1.62-1.15-5-3.07-5.71s-3.78.26-4.74,2.36a23.62,23.62,0,0,0-2.19,11.46A6.71,6.71,0,0,0,134.7,51.7ZM160,45.87c1.53-.51,2.6-.81,3.64-1.22,3.19-1.27,4.87-3.65,4.85-6.86,0-1,0-2.24-1-2.73s-2,.25-2.79.94C161.84,38.47,160.52,41.67,160,45.87Z" transform="translate(0 0)"/><path class="cls-2" d="M119.86,26.58c-1-.13-1.73-.47-1.7-1.34,0-1.36,1.11-1.85,2.25-1.95a1.24,1.24,0,0,1,1.3,1.45C121.66,26,120.64,26.29,119.86,26.58Z" transform="translate(0 0)"/><path class="cls-3" d="M17.9,66.32a14.24,14.24,0,0,1,0,4.69,9.23,9.23,0,0,1-1-4.48Z" transform="translate(0 0)"/><path class="cls-1" d="M68.4,35.09a7.72,7.72,0,0,1,5.3-8.36c2.89-.95,6,.38,7.91,3.35,3.3,5.25,2.58,7.37-3.2,9.27a11.74,11.74,0,0,1-4.39.8c-1.57-.09-2.36-.59-2-2.45C72.54,34.31,71.89,33.88,68.4,35.09Z" transform="translate(0 0)"/><path class="cls-1" d="M71.58,42.51c4.35.93,8-.82,12.16-2.29-.59,4.91-1.39,9.38-4.29,13.07-2.38,3-4.81,2.61-6.4-.85A19.1,19.1,0,0,1,71.58,42.51Z" transform="translate(0 0)"/><path class="cls-1" d="M30.19,50.66a11.1,11.1,0,0,1-3.64,9.41C26.09,56.34,28,53.47,30.19,50.66Z" transform="translate(0 0)"/><path class="cls-1" d="M148.46,31c2-5.79,3.46-11.32,6.53-16.21a19.41,19.41,0,0,1,6-6.6c1.3-.81,2.77-1.45,4.23-.46s1.4,2.56,1.26,4.08A8.84,8.84,0,0,1,164.88,16c-4.06,5.87-9.74,10.11-15,14.8C149.69,31,149.23,30.92,148.46,31Z" transform="translate(0 0)"/><path class="cls-1" d="M134.7,51.7a6.71,6.71,0,0,1-1.92-4.91A23.62,23.62,0,0,1,135,35.33c1-2.1,2.89-3,4.74-2.36s4,4.09,3.07,5.71c-2.21,4-4,8.28-6.75,12A7.37,7.37,0,0,1,134.7,51.7Z" transform="translate(0 0)"/><path class="cls-1" d="M160,45.87c.55-4.2,1.87-7.4,4.66-9.87.77-.69,1.74-1.41,2.79-.94s1,1.7,1,2.73c0,3.21-1.66,5.59-4.85,6.86C162.57,45.06,161.5,45.36,160,45.87Z" transform="translate(0 0)"/></g></g></svg>