<svg xmlns="http://www.w3.org/2000/svg" xmlns:xlink="http://www.w3.org/1999/xlink" viewBox="0 0 262.6 242.18"><defs><style>.cls-1{fill:url(#linear-gradient);}.cls-2{fill:#231f20;}</style><linearGradient id="linear-gradient" x1="10.76" y1="121.09" x2="252.94" y2="121.09" gradientUnits="userSpaceOnUse"><stop offset="0" stop-color="#dbd16c"/><stop offset="0.3" stop-color="#dbd16c"/><stop offset="0.88" stop-color="#fff"/></linearGradient></defs><g id="Layer_2" data-name="Layer 2"><g id="Layer_1-2" data-name="Layer 1"><circle class="cls-1" cx="131.85" cy="121.09" r="121.09"/><path class="cls-2" d="M12.44,62.34v.39h-6V78.09H6V62.73H0v-.39Z"/><path class="cls-2" d="M28.7,70.24H16.24v7.85h-.4V62.34h.4v7.5H28.7v-7.5h.4V78.09h-.4Z"/><path class="cls-2" d="M33,62.34h9.81v.42H33.41v7.06h8.76v.42H33.41v7.43h9.41v.42H33Z"/><path class="cls-2" d="M14.15,87.37l8.24-7.51h2.4v20.26H19.44V89.72l-5.29,4.84L8.82,89.75v10.37H3.47V79.86H5.88Z"/><path class="cls-2" d="M28.84,79.86h5.33v20.26H28.84Z"/><path class="cls-2" d="M45.7,86.07a1.55,1.55,0,0,0-1.54-1.54,1.53,1.53,0,0,0-1.51,1.54,1.51,1.51,0,0,0,1.51,1.52,6.27,6.27,0,1,1-6.24,6.24h4.73a1.52,1.52,0,0,0,1.51,1.54,1.54,1.54,0,0,0,1.54-1.52,1.56,1.56,0,0,0-1.54-1.54,6.23,6.23,0,1,1,6.24-6.24Z"/><path class="cls-2" d="M61.64,86.07a1.55,1.55,0,0,0-1.54-1.54,1.53,1.53,0,0,0-1.51,1.54,1.51,1.51,0,0,0,1.51,1.52,6.27,6.27,0,1,1-6.24,6.24h4.73a1.52,1.52,0,0,0,1.51,1.54,1.54,1.54,0,0,0,1.54-1.52,1.56,1.56,0,0,0-1.54-1.54,6.23,6.23,0,1,1,6.24-6.24Z"/><path class="cls-2" d="M70.1,79.86h5.32v20.26H70.1Z"/><path class="cls-2" d="M94.39,100.12l-9.57-9.59v9.59H79.5V79.86h2.16l9.59,9.56V79.86h5.33v20.26Z"/><path class="cls-2" d="M119.25,89.23V90a10.14,10.14,0,1,1-3-7.19l-3.76,3.73a4.84,4.84,0,0,0-3.38-1.35A4.81,4.81,0,1,0,113,92.8h-3.92V89.23Z"/><path class="cls-2" d="M134.32,79.86h8.54A7.45,7.45,0,0,1,143,94.75h-3.33v5.37h-5.32Zm5.32,10.29h3.3a2.91,2.91,0,1,0,0-5.81h-3.3Z"/><path class="cls-2" d="M153.18,79.86h12.59v4.4H158.5v3.3h6.43V92H158.5v3.73h7.27v4.35H153.18Z"/><path class="cls-2" d="M181.33,100.12l-3.13-5.37h-3.3v5.37h-5.32V79.86h8.54a7.43,7.43,0,0,1,5,12.91l4.3,7.35Zm-6.43-10h3.3a2.91,2.91,0,1,0,0-5.81h-3.3Z"/><path class="cls-2" d="M197.54,86.07A1.55,1.55,0,0,0,196,84.53a1.53,1.53,0,0,0-1.51,1.54A1.51,1.51,0,0,0,196,87.59a6.27,6.27,0,1,1-6.24,6.24h4.73A1.52,1.52,0,0,0,196,95.37a1.54,1.54,0,0,0,1.54-1.52A1.56,1.56,0,0,0,196,92.31a6.23,6.23,0,1,1,6.24-6.24Z"/><path class="cls-2" d="M215.46,79.86A10.13,10.13,0,1,1,205.35,90,10.16,10.16,0,0,1,215.46,79.86Zm0,5.29A4.84,4.84,0,1,0,220.29,90,4.83,4.83,0,0,0,215.46,85.15Z"/><path class="cls-2" d="M244.18,100.12l-9.57-9.59v9.59h-5.32V79.86h2.16L241,89.42V79.86h5.33v20.26Z"/><path class="cls-2" d="M257.9,86.07a1.55,1.55,0,0,0-1.54-1.54,1.53,1.53,0,0,0-1.51,1.54,1.51,1.51,0,0,0,1.51,1.52,6.27,6.27,0,1,1-6.24,6.24h4.73a1.52,1.52,0,0,0,1.51,1.54,1.54,1.54,0,0,0,1.54-1.52,1.56,1.56,0,0,0-1.54-1.54,6.23,6.23,0,1,1,6.24-6.24Z"/><path class="cls-2" d="M205.35,104.85v.4h-6V120.6h-.4V105.25h-6v-.4Z"/><path class="cls-2" d="M206.11,120.6l7.35-15.75h.46l7.36,15.75h-.47l-2.35-5.06h-9.54l-2.35,5.06Zm3-5.48h9.12l-4.56-9.79Z"/><path class="cls-2" d="M235.35,108.67a3.86,3.86,0,0,1-2.37,3.55,4.26,4.26,0,0,1-1,8.38h-8.17V104.85h7.77A3.83,3.83,0,0,1,235.35,108.67Zm-3.82,3.4a3.4,3.4,0,1,0,0-6.8h-7.35v6.8Zm-7.35.42v7.69h7.75a3.85,3.85,0,0,0,0-7.69Z"/><path class="cls-2" d="M239.62,120.21h9.43v.39h-9.83V104.85h.4Z"/><path class="cls-2" d="M252.56,104.85h9.81v.42H253v7.06h8.76v.42H253v7.43h9.41v.42h-9.81Z"/></g></g></svg>